<?xml version="1.0" standalone="no"?>
<!DOCTYPE svg PUBLIC "-//W3C//DTD SVG 20010904//EN"
 "http://www.w3.org/TR/2001/REC-SVG-20010904/DTD/svg10.dtd">
<svg version="1.0" xmlns="http://www.w3.org/2000/svg"
 width="1000.000000pt" height="1000.000000pt" viewBox="0 0 1000.000000 1000.000000"
 preserveAspectRatio="xMidYMid meet">
<metadata>
Created by potrace 1.11, written by Peter Selinger 2001-2013
</metadata>
<g transform="translate(0.000000,1000.000000) scale(0.100000,-0.100000)"
fill="#000000" stroke="none">
<path d="M4650 9989 c-861 -58 -1701 -345 -2428 -831 -546 -365 -1015 -834
-1380 -1380 -379 -567 -635 -1196 -757 -1853 -240 -1298 29 -2613 757 -3703
365 -546 834 -1015 1380 -1380 567 -379 1196 -635 1853 -757 1298 -240 2613
29 3703 757 546 365 1015 834 1380 1380 379 567 635 1196 757 1853 240 1298
-29 2613 -757 3703 -482 722 -1144 1305 -1918 1692 -522 262 -1031 417 -1605
490 -302 38 -678 49 -985 29z m411 -1580 c19 -7 48 -22 66 -35 65 -49 702
-918 1039 -1419 765 -1137 1184 -1998 1310 -2690 22 -122 29 -394 15 -541 -61
-606 -320 -1140 -757 -1564 -378 -365 -821 -586 -1361 -677 -155 -26 -591 -26
-746 0 -540 91 -983 312 -1361 677 -437 424 -696 958 -757 1564 -14 147 -7
419 15 541 126 692 545 1553 1310 2690 337 501 974 1370 1039 1419 59 44 124
56 188 35z"/>
</g>
</svg>
